{
  "asset": {
    "version": "2.0",
    "generator": "THREE.GLTFExporter"
  },
  "scenes": [
    {
      "name": "Scene",
      "nodes": [
        0,
        5
      ]
    }
  ],
  "scene": 0,
  "nodes": [
    {
      "matrix": [
        1,
        0,
        0,
        0,
        0,
        1,
        0,
        0,
        0,
        0,
        1,
        0,
        5,
        10,
        7.5,
        1
      ],
      "name": "DirectionalLight",
      "extensions": {
        "KHR_lights_punctual": {
          "light": 0
        }
      }
    },
    {
      "name": "node-0",
      "extras": {
        "name": "node-0"
      },
      "mesh": 0
    },
    {
      "matrix": [
        1,
        0,
        0,
        0,
        0,
        1,
        0,
        0,
        0,
        0,
        1,
        0,
        0.01882126450538637,
        -3.624549844142568,
        0.2761985866895093,
        1
      ],
      "children": [
        1
      ]
    },
    {
      "matrix": [
        1,
        0,
        0,
        0,
        0,
        1,
        0,
        0,
        0,
        0,
        1,
        0,
        -0.01882126450538637,
        3.624549844142568,
        -0.2761985866895093,
        1
      ],
      "extras": {
        "isTransformNode": 1
      },
      "children": [
        2
      ]
    },
    {
      "children": [
        3
      ]
    },
    {
      "name": "BighornSheep.gltf",
      "extras": {
        "GOOGLE_camera_index": {
          "cameraIndex": 0,
          "nodeIndex": 4
        },
        "GOOGLE_geometry_data": {
          "stats": {
            "centroid": [
              0,
              3.502773917553432,
              0.5070767483390083
            ],
            "radius": 6.028055808224175,
            "stdev": 2.990323990596229
          },
          "visualCenterPoint": [
            -0.01882126450538637,
            3.624549844142568,
            -0.2761985866895093
          ]
        },
        "GOOGLE_hemi_light": {
          "groundColor": [
            1,
            0.9215686274509803,
            0.2313725490196079
          ]
        },
        "gltfExtensions": {
          "GOOGLE_backgrounds": {
            "color": [
              1,
              0.9215686274509803,
              0.2313725490196079
            ]
          },
          "GOOGLE_camera_settings": {}
        }
      },
      "children": [
        4
      ]
    }
  ],
  "extensions": {
    "KHR_lights_punctual": {
      "lights": [
        {
          "name": "DirectionalLight",
          "color": [
            1,
            1,
            1
          ],
          "intensity": 1,
          "type": "directional"
        }
      ]
    }
  },
  "bufferViews": [
    {
      "buffer": 0,
      "byteOffset": 0,
      "byteLength": 33696,
      "target": 34962,
      "byteStride": 12
    },
    {
      "buffer": 0,
      "byteOffset": 33696,
      "byteLength": 33696,
      "target": 34962,
      "byteStride": 12
    },
    {
      "buffer": 0,
      "byteOffset": 67392,
      "byteLength": 22464,
      "target": 34962,
      "byteStride": 8
    },
    {
      "buffer": 0,
      "byteOffset": 89856,
      "byteLength": 5616,
      "target": 34963
    }
  ],
  "buffers": [
    {
      "byteLength": 95472,
      "uri": "data:application/octet-stream;base64,"
    }
  ],
  "accessors": [
    {
      "bufferView": 0,
      "componentType": 5126,
      "count": 2808,
      "max": [
        0.9999679923057556,
        0.9947180151939392,
        0.9177290201187134
      ],
      "min": [
        -0.9999679923057556,
        -1,
        -0.9653840065002441
      ],
      "type": "VEC3"
    },
    {
      "bufferView": 1,
      "componentType": 5126,
      "count": 2808,
      "max": [
        1.228384017944336,
        6.209261894226074,
        3.7642529010772705
      ],
      "min": [
        -1.228384017944336,
        0,
        -3.7642529010772705
      ],
      "type": "VEC3"
    },
    {
      "bufferView": 2,
      "componentType": 5126,
      "count": 2808,
      "max": [
        0.9853630065917969,
        -0.10111600160598755
      ],
      "min": [
        0.010181999765336514,
        -0.9688550233840942
      ],
      "type": "VEC2"
    },
    {
      "bufferView": 3,
      "componentType": 5123,
      "count": 2808,
      "max": [
        2807
      ],
      "min": [
        0
      ],
      "type": "SCALAR"
    }
  ],
  "materials": [
    {
      "pbrMetallicRoughness": {
        "baseColorFactor": [
          0.5,
          0.5,
          0.5,
          1
        ],
        "metallicFactor": 0,
        "roughnessFactor": 0.9699476628648295,
        "baseColorTexture": {
          "index": 0
        }
      },
      "doubleSided": true,
      "name": "BighornSheep_mat"
    }
  ],
  "textures": [
    {
      "sampler": 0,
      "source": 0,
      "name": "BighornSheep_mat-texture"
    }
  ],
  "samplers": [
    {
      "magFilter": 9729,
      "minFilter": 9987,
      "wrapS": 10497,
      "wrapT": 10497
    }
  ],
  "images": [
    {
      "mimeType": "image/png",
      "uri": "data:image/png;base64,"
    }
  ],
  "meshes": [
    {
      "primitives": [
        {
          "mode": 4,
          "attributes": {
            "NORMAL": 0,
            "POSITION": 1,
            "TEXCOORD_0": 2
          },
          "indices": 3,
          "material": 0
        }
      ]
    }
  ],
  "extensionsUsed": [
    "KHR_lights_punctual"
  ]
}