{"accessors" : [{"bufferView" : 0, "byteOffset" : 0, "componentType" : 5123, "count" : 6828, "type" : "SCALAR", "max" : [2391], "min" : [0]}, {"bufferView" : 1, "byteOffset" : 0, "componentType" : 5126, "count" : 2392, "type" : "VEC3", "max" : [3.073472023010254, 6.399791240692139, 18.589271545410156], "min" : [-4.508245468139648, -6.307071685791016, -18.17367935180664]}, {"bufferView" : 1, "byteOffset" : 12, "componentType" : 5126, "count" : 2392, "type" : "VEC3", "max" : [0.9998908042907715, 0.999830424785614, 0.9961292743682861], "min" : [-0.9997963905334473, -0.9999961853027344, -0.9975760579109192]}, {"bufferView" : 1, "byteOffset" : 24, "componentType" : 5126, "count" : 2392, "type" : "VEC2", "max" : [0.991083025932312, 0.9716299772262573], "min" : [0.007784999907016754, 0.1943349838256836]}], "asset" : {"generator" : "Aspose.3D 21.1", "version" : "2.0"}, "buffers" : [{"uri" : "buffer.bin", "byteLength" : 4482452}], "bufferViews" : [{"buffer" : 0, "byteOffset" : 0, "byteLength" : 13656, "target" : 34963}, {"buffer" : 0, "byteOffset" : 13660, "byteLength" : 218496, "byteStride" : 32, "target" : 34962}, {"buffer" : 0, "byteOffset" : 232160, "byteLength" : 55966}, {"buffer" : 0, "byteOffset" : 288128, "byteLength" : 4194322}], "images" : [{"mimeType" : "image/jpeg", "bufferView" : 2}, {"mimeType" : "image/x-targa", "bufferView" : 3}], "materials" : [{"pbrMetallicRoughness" : {"baseColorFactor" : [1, 1, 1, 1], "baseColorTexture" : {"index" : 1, "texCoord" : 0}, "metallicFactor" : 0, "roughnessFactor" : 0.33000001311302185}, "normalTexture" : {"index" : 0, "texCoord" : 0, "scale" : 1}, "emissiveFactor" : [0, 0, 0], "alphaMode" : "OPAQUE", "doubleSided" : false}], "meshes" : [{"primitives" : [{"attributes" : {"POSITION" : 1, "NORMAL" : 2, "TEXCOORD_0" : 3}, "indices" : 0, "material" : 0, "mode" : 4}]}], "nodes" : [{"mesh" : 0}], "samplers" : [{"magFilter" : 9729, "minFilter" : 9729, "wrapS" : 10497, "wrapT" : 10497}, {"magFilter" : 9729, "minFilter" : 9729, "wrapS" : 10497, "wrapT" : 10497}], "scene" : 0, "scenes" : [{"nodes" : [0]}], "textures" : [{"sampler" : 0, "source" : 0}, {"sampler" : 1, "source" : 1}]}